<svg width="14" height="13" viewBox="0 0 14 13" fill="none" xmlns="http://www.w3.org/2000/svg">
<path fill-rule="evenodd" clip-rule="evenodd" d="M6.46044 8.21847H7.5391C7.91248 8.41327 8.16738 8.80403 8.16738 9.25432V11.7943C8.16738 12.0704 8.39124 12.2943 8.66738 12.2943H10.1632C11.0795 12.2943 11.8587 11.6259 11.9982 10.7203C12.1258 9.89172 12.1789 9.05444 12.1574 8.21847H13.25C13.5433 8.21847 13.8097 8.04752 13.9318 7.78089C14.054 7.51427 14.0096 7.2009 13.8181 6.97876L8.32548 0.607356C7.62737 -0.202454 6.37265 -0.202451 5.67454 0.607356L0.181954 6.97876C-0.00954166 7.2009 -0.053989 7.51427 0.0681832 7.78089C0.190355 8.04752 0.456729 8.21847 0.750011 8.21847H1.84253C1.82106 9.05444 1.87416 9.89172 2.00176 10.7203C2.14121 11.6259 2.92044 12.2943 3.83668 12.2943H5.33216C5.6083 12.2943 5.83216 12.0704 5.83216 11.7943V9.25432C5.83216 8.80403 6.08706 8.41327 6.46044 8.21847Z" fill="currentColor"/>
</svg>
