<svg width="910" height="251" viewBox="0 0 910 251" fill="none" xmlns="http://www.w3.org/2000/svg">
<path d="M71.8816 0.0436539C70.1132 8.30945 64.4512 15.9161 57.902 20.5079C56.2415 21.166 56.2415 21.166 54.5475 21.8374C42.3099 27.4439 33.7078 51.6526 28.9104 64.1186C17.0752 97.3057 20.7059 131.613 33.8588 163.603C37.1241 171.253 40.7243 177.876 45.9194 184.222C46.6402 185.288 47.361 186.354 48.1037 187.453C63.6763 206.908 91.3324 217.022 112.822 226.227C114.033 226.758 115.245 227.289 116.493 227.835C127.611 232.47 133.643 231.402 144.526 226.766C145.436 226.384 146.345 226.002 147.283 225.609C177.461 212.859 177.461 212.859 203.69 192.838C204.76 191.833 204.76 191.833 205.851 190.806C222.144 174.623 232.707 143.758 233.769 120.096C234.132 106.289 233.924 93.1491 230.651 79.7465C230.193 77.843 230.193 77.843 229.726 75.9011C225.305 59.8421 215.939 33.6351 202.243 24.2103C199.928 23.1147 199.928 23.1147 197.66 22.3339C191.626 20.0263 187.81 12.2185 184.718 6.50605C184.02 4.72525 183.345 2.9331 182.72 1.12072C187.226 1.73004 190.764 2.98497 194.828 5.15972C195.84 5.68731 196.851 6.2149 197.894 6.75849C201.605 9.27839 204.207 11.8371 205.235 16.5488C205.301 17.3888 205.368 18.2288 205.437 19.0943C206.361 24.9603 208.782 27.9188 212.326 32.3388C231.294 58.576 239.816 93.6218 236.178 126.477C233.836 144.034 227.538 160.149 219.667 175.605C218.836 177.236 218.836 177.236 217.989 178.9C206.74 199.364 188.003 209.912 168.741 219.765C169.432 219.715 170.123 219.665 170.835 219.614C180.159 219.243 190.766 220.524 198.697 226.227C197.452 226.929 196.203 227.623 194.953 228.314C194.258 228.702 193.562 229.089 192.846 229.488C188.263 231.735 183.837 231.875 178.851 231.949C178.157 231.981 177.463 232.012 176.749 232.044C171.573 232.112 168.668 230.909 164.747 227.305C163.585 225 163.585 225 162.749 222.996C158.774 224.945 154.802 226.898 150.829 228.853C149.695 229.409 148.56 229.965 147.391 230.538C145.774 231.334 145.774 231.334 144.124 232.147C143.125 232.638 142.127 233.129 141.098 233.634C138.876 234.628 138.876 234.628 137.786 235.921C152.169 240.132 152.169 240.132 166.744 243.461C166.132 246.651 165.492 248.179 163.748 251C153.677 249.323 143.991 245.901 134.977 240.768C131.724 239.184 130.114 239.018 126.778 240.377C125.994 240.686 125.21 240.995 124.403 241.314C123.547 241.667 122.691 242.02 121.809 242.383C118.891 243.54 115.971 244.69 113.05 245.836C111.002 246.64 108.958 247.456 106.919 248.284C105.936 248.665 104.953 249.046 103.94 249.439C102.614 249.967 102.614 249.967 101.261 250.505C98.3332 251.104 97.296 250.592 94.8482 248.846C93.1008 247.23 93.1008 247.23 91.8526 245.615C91.8526 244.904 91.8526 244.193 91.8526 243.461C102.068 240.617 112.283 237.774 122.808 234.844C118.709 232.778 114.611 230.712 110.388 228.584C109.02 227.894 107.653 227.205 106.243 226.494C99.1126 222.92 91.9496 219.479 84.7101 216.166C73.9416 211.218 64.2195 205.894 54.9063 198.224C53.7382 197.287 53.7382 197.287 52.5465 196.33C46.5763 191.154 42.2741 184.502 37.931 177.76C37.3968 176.957 36.8626 176.155 36.3123 175.328C27.8911 161.592 23.328 144.155 19.9571 128.214C19.783 127.397 19.609 126.58 19.4296 125.737C16.681 108.766 17.9173 89.6125 22.9528 73.2841C23.1562 72.5882 23.3595 71.8923 23.5691 71.1752C28.3819 54.8725 36.207 40.2765 45.718 26.6629C49.0656 21.7307 50.0364 17.8426 50.9121 11.8914C54.7828 4.08593 63.9191 -0.501052 71.8816 0.0436539Z" fill="#FFDF6A"/>
<path d="M146.695 39.4559C147.769 39.7418 148.842 40.0277 149.948 40.3223C153.342 41.2279 156.734 42.1438 160.125 43.0601C162.44 43.6797 164.755 44.2987 167.07 44.917C172.715 46.426 178.358 47.9434 184 49.4675C184 50.5358 184 51.6042 184 52.7049C179.111 54.3931 176.393 54.8632 171 54.8632C171.33 64.4783 171.66 74.0935 172 84C170.02 83.4658 170.02 83.4658 168 82.9209C168.33 74.3741 168.66 65.8273 169 57.0215C165.7 57.7337 162.4 58.4459 159 59.1798C158.67 63.4532 158.34 67.7266 158 72.1294C148.251 70.053 148.251 70.053 146.277 69.4092C141.183 68.252 135.823 68.6478 130.631 68.6328C128.469 68.6224 126.308 68.5889 124.146 68.5548C116.817 68.496 110.157 68.928 103.121 71.4307C101 72.1294 101 72.1294 98 72.1294C98 68.9244 98 65.7193 98 62.4172C100.062 61.7169 102.124 61.0207 104.188 60.3263C105.336 59.9382 106.485 59.5501 107.668 59.1502C113.427 57.3361 118.848 56.7435 124.812 56.4145C125.601 56.3679 126.389 56.3212 127.201 56.2732C129.134 56.1595 131.067 56.0504 133 55.9423C122.693 55.5983 113.384 55.8377 103.332 58.577C96.1724 59.8722 89.0086 57.1644 82.0625 55.3353C81.0925 55.0828 80.1225 54.8303 79.123 54.5702C76.748 53.9516 74.3737 53.3297 72 52.7049C72 51.6366 72 50.5682 72 49.4675C79.3591 47.4247 86.7245 45.4101 94.0947 43.4144C96.5985 42.733 99.1008 42.0453 101.602 41.351C105.207 40.3512 108.818 39.3745 112.43 38.4021C113.537 38.0896 114.645 37.7772 115.786 37.4553C126.909 34.5081 135.753 36.4775 146.695 39.4559Z" fill="white"/>
<path d="M123.582 157.796C126.127 159.583 126.127 159.583 130 159.234C131.777 158.192 133.524 157.088 135.25 155.947C143.616 151.223 152.02 151.238 161.078 153.392C168.603 156.089 177.537 160.665 182 168C178.233 166.427 174.701 164.557 171.125 162.521C161.779 157.42 152.373 154.712 142.008 157.989C139.611 159.035 137.302 160.152 135 161.426C134.34 161.787 133.68 162.149 133 162.521C131.866 164.731 131.866 164.731 131 166.904C129.02 166.904 127.04 166.904 125 166.904C124.65 165.913 124.65 165.913 124.293 164.901C121.67 160.073 116.723 158.578 112 157.043C101.933 155.671 92.1312 156.671 83.6875 163.219C82.3454 164.379 81.0294 165.576 79.7539 166.823C78 168 78 168 75.7773 167.636C75.1908 167.395 74.6043 167.153 74 166.904C88.469 153.616 106.202 146.192 123.582 157.796Z" fill="white"/>
<path d="M29 199.389C54.847 198.546 54.847 198.546 61.3203 204.941C62.1518 205.958 62.1518 205.958 63 206.996C62.0339 209.621 61.4338 211.059 59.1719 212.54C54.2916 214.734 49.8746 214.307 44.9922 212.247C39.2988 209.231 33.9073 205.926 29 201.562C29 200.845 29 200.128 29 199.389Z" fill="#FFDD65"/>
<path d="M11 167C22.0513 169.992 33.8002 174.258 40 185.247C40 186.31 40 187.372 40 188.467C36.4474 190.374 32.8708 190.207 29 189.541C22.2486 186.321 17.9268 181.065 14 174.514C13.0719 172.986 13.0719 172.986 12.125 171.428C11 169.147 11 169.147 11 167Z" fill="#FFDD61"/>
<path d="M127 180C127.66 180 128.32 180 129 180C129.99 182.503 130.98 185.005 132 187.583C134.97 187.941 137.94 188.298 141 188.667C139.763 189.94 139.763 189.94 138.5 191.24C135.359 195.227 135.583 198.801 135.824 203.859C135.882 204.565 135.94 205.272 136 206C135.432 205.728 134.863 205.455 134.277 205.175C129.685 203.107 129.685 203.107 124.844 203.258C122.722 204.232 122.722 204.232 120 206C120.058 205.268 120.116 204.536 120.176 203.783C120.314 200.827 120.362 198.102 120 195.167C117.662 192.415 117.662 192.415 115 190.833C115 190.118 115 189.403 115 188.667C117.97 188.667 120.94 188.667 124 188.667C124.309 187.639 124.619 186.611 124.938 185.552C126 182.167 126 182.167 127 180Z" fill="#FFDD61"/>
<path d="M245 170.562C234.993 188.405 234.993 188.405 227 191.778C224.711 192.022 224.711 192.022 222.375 191.977C221.599 191.97 220.823 191.963 220.023 191.956C218 191.778 218 191.778 216 190.717C216.419 185.526 218.357 183.469 222 180.109C227.668 175.098 237.57 167.935 245 170.562Z" fill="#FFDD60"/>
<path d="M92 220.755C89.9054 225.213 88.1304 227.316 84 229.498C75.9746 230.59 67.3889 230.074 60 226.219C58.2305 224.465 58.2305 224.465 57 222.941C68.5242 218.002 80.421 213.6 92 220.755Z" fill="#FFDD61"/>
<path d="M211.082 201.001C212.013 201.005 212.945 201.009 213.904 201.012C215.344 201.026 215.344 201.026 216.812 201.04C217.792 201.046 218.771 201.051 219.779 201.056C222.186 201.069 224.593 201.087 227 201.11C222.403 207.892 216.585 212.671 209 214.455C198.262 215.357 198.262 215.357 194.633 212.765C194.094 212.222 193.555 211.679 193 211.119C194.51 206.419 197.185 204.635 201 202.222C204.409 201.256 207.573 200.977 211.082 201.001Z" fill="#FFDD62"/>
<path d="M6.16355 65C8.24638 67.1299 9.69346 69.1157 11.0211 71.873C11.3575 72.5674 11.6938 73.2619 12.0404 73.9773C12.3817 74.6964 12.7231 75.4154 13.0748 76.1562C13.4237 76.8753 13.7725 77.5944 14.1319 78.3352C17.0159 84.3336 18.5753 89.0496 17.8035 95.8125C16.3485 97.9375 16.3485 97.9375 14.8935 99C10.8133 97.3748 8.75986 95.8168 6.83043 91.6289C4.64421 86.3848 4.07192 81.9337 4.04168 76.1562C4.02793 74.9619 4.01417 73.7676 4 72.5371C4.21414 69.3884 4.66387 67.6491 6.16355 65Z" fill="#FFDD63"/>
<path d="M2 133C11.1276 137.538 21.3341 143.656 25.814 154.178C26.062 157.94 26.062 157.94 25.814 160.866C20.0969 161.38 17.3322 160.525 12.9147 156.407C7.59008 150.792 4.46047 144.024 2 136.344C2 135.24 2 134.137 2 133Z" fill="#FFDD62"/>
<path d="M248.861 66C252.698 72.474 252.367 79.5159 251.259 87.0051C249.836 93.2888 248.147 96.5887 243.193 100C241.947 100 240.7 100 239.415 100C237.671 96.0761 237.775 92.5099 238.471 88.3125C241.165 80.5148 244.976 73.113 248.861 66Z" fill="#FFDD63"/>
<path d="M235.833 34C240.466 39.3273 241.792 47.7026 242 55C241.808 60.8562 240.979 64.3668 237.731 68.9091C235.122 69.9318 235.122 69.9318 232.987 70C229.884 64.0528 229.426 58.8852 230.576 52.1987C231.152 49.5894 231.787 47.012 232.454 44.4318C232.672 43.5438 232.89 42.6557 233.115 41.7408C234.737 35.2613 234.737 35.2613 235.833 34Z" fill="#FFDD64"/>
<path d="M253 137C251.691 146.747 247.777 154.556 240.564 160.785C236.713 163.014 234.419 163.275 230.117 162.801C229.609 157.032 230.725 154.363 234.097 149.9C238.684 144.865 246.055 137 253 137Z" fill="#FFDD62"/>
<path d="M38.2134 6C38.8578 6 39.5021 6 40.1659 6C42.8422 28.1128 42.8422 28.1128 38.4727 37.1847C36.9674 39.1679 35.4521 39.9871 33.3321 41C30.0168 37.6086 29.2393 34.5323 29 29.584C29.0452 20.9686 33.2389 12.4435 38.2134 6Z" fill="#FFDD63"/>
<path d="M256 101C255.84 111.352 254.814 119.948 248.676 128.074C246.11 130.766 244.404 131.638 240.89 132C240.039 131.887 239.188 131.774 238.311 131.658C237.513 124.877 238.12 121.351 241.689 115.713C252.105 101 252.105 101 256 101Z" fill="#FFDD61"/>
<path d="M215.535 8C221.359 13.2012 226.075 21.1967 226.975 29.266C227.165 35.3004 226.346 38.3202 222.66 43C218.824 41.2704 217.088 39.3229 215.284 35.3065C213.004 26.6519 214.192 16.7451 215.535 8Z" fill="#FFDD63"/>
<path d="M19.0812 33C20.9828 34.0909 20.9828 34.0909 22.0004 37.3168C27.0857 58.646 27.0857 58.646 23.3338 66.6392C22.8717 67.4183 22.4096 68.1973 21.9336 69C18.7263 67.4773 17.1394 65.8106 15.2781 62.4545C12.7685 53.816 14.2479 44.5435 17.1797 36.2727C17.8072 35.1927 18.4347 34.1127 19.0812 33Z" fill="#FFDD61"/>
<path d="M0 99C17.3777 114.704 17.3777 114.704 17.999 122.02C18.0094 124.665 17.9377 127.272 17.7639 129.91C13.7625 130.248 11.8815 129.719 8.82026 126.912C1.50158 119.5 0.371628 109.375 0 99Z" fill="#FFDC5F"/>
<path d="M183 1C187.499 1.61492 191.032 2.88137 195.089 5.07609C196.605 5.87475 196.605 5.87475 198.151 6.68954C202.185 9.45836 204.426 12.378 205.932 17.3043C206.06 20.2108 205.976 23.088 205.932 26C195.659 22.1074 190.458 16.6353 184.994 6.43478C184.297 4.63763 183.623 2.82902 183 1Z" fill="#FFDD62"/>
<path d="M215.146 127C220.802 131.505 223.201 137.039 225.706 144.143C226.281 148.631 226.078 150.668 224.506 154.79C223.952 155.519 223.398 156.249 222.826 157C218.986 157 218.986 157 217.426 155.728C214.266 151.078 213.945 146.717 214.006 140.996C214.013 139.726 214.019 138.457 214.025 137.149C214.176 133.68 214.564 130.408 215.146 127Z" fill="#FFDD62"/>
<path d="M39.2865 126C39.9497 126 40.6128 126 41.2961 126C44.2144 132.224 42.8932 142.235 40.9821 148.701C39.9193 151.837 38.6985 153.864 36.2721 156C34.1997 155.933 34.1997 155.933 32.2528 154.929C29.6205 151.28 29.8403 147.583 30.2432 143.143C32.0947 136.409 34.6239 130.972 39.2865 126Z" fill="#FFDD61"/>
<path d="M178 192C177.592 201.096 175.345 208.383 169.69 215.303C165.921 217.382 163.208 217.092 159.006 216.785C158.897 210.398 160.187 207.387 164.13 202.574C173.606 192 173.606 192 178 192Z" fill="#FFDD62"/>
<path d="M196.718 174C197.347 174.354 197.975 174.709 198.623 175.074C199.384 192.064 199.384 192.064 194.814 198.704C192.434 201.389 192.434 201.389 190.054 203C188.797 203 187.54 203 186.245 203C184.571 199.222 184.725 195.304 185.877 191.307C188.536 184.794 192.644 179.444 196.718 174Z" fill="#FFDD62"/>
<path d="M38.9108 99C39.2959 107.71 38.5928 116.124 33.6216 123.298C30.9677 125.995 29.6817 126.777 26.1183 127C24.0425 123.308 23.7575 120.529 24.1503 116.231C26.1394 110.547 32.2764 99 38.9108 99Z" fill="#FFDD63"/>
<path d="M72 0.0480783C70.3641 7.91462 65.6567 13.6729 60.6256 19.256C57.5139 21.3278 54.8166 21.6878 51.2293 22C50.8998 17.3386 50.6503 13.4371 52.5274 9.17185C58.2876 3.67169 64.2434 -0.497832 72 0.0480783Z" fill="#FFDD60"/>
<path d="M212 75C220.762 78.2722 227.594 81.9273 231.882 91.3043C232.112 97.3244 232.112 97.3244 230.888 100C226.558 99.6618 223.665 98.5603 220.399 95.355C217.505 91.5839 215.819 87.0687 213.988 82.6087C213.614 81.8479 213.24 81.087 212.854 80.3032C212 78.2609 212 78.2609 212 75Z" fill="#FFDD62"/>
<path d="M217.091 101C224.126 104.629 227.775 109.432 231.56 116.683C232.477 120.954 231.943 125.082 230.119 129C226.49 128.777 225.181 127.995 222.478 125.298C217.415 118.124 216.699 109.71 217.091 101Z" fill="#FFDD61"/>
<path d="M207.954 153C212.41 157.38 213.979 164.226 214.946 170.65C215.17 175.058 214.767 177.856 212.366 181.394C209.836 184 209.836 184 207.013 184C203.284 175.882 203.288 168.693 205.543 159.948C206.243 157.52 206.949 155.284 207.954 153Z" fill="#FFDD63"/>
<path d="M44 73C41.648 81.8784 38.7772 91.9973 31.1266 96.913C27.8463 97.7283 27.8463 97.7283 25.185 98C23.7659 94.8847 23.8913 92.7685 24.1947 89.3043C27.3048 82.3284 33.3032 77.043 39.7024 73.8662C42.0195 73 42.0195 73 44 73Z" fill="#FFDD62"/>
<path d="M78.1042 191C85.0093 193.294 90.9573 198.396 94.9521 204.761C96.2787 207.834 96.085 210.659 95.7686 213.957C93.6832 214.739 93.6832 214.739 90.8618 215C83.986 211.121 80.8583 206.172 78.6217 198.471C78.0355 195.918 77.8659 193.618 78.1042 191Z" fill="#FFDC60"/>
<path d="M202 53C209.631 53.163 215.935 54.1221 222 59.2339C224.92 62.8994 226 65.8226 226 70.6628C220.977 71.3151 217.122 71.2755 212.875 68.1952C208.337 64.2472 205.039 59.2791 202 54.039C202 53.6961 202 53.3533 202 53Z" fill="#FFDD62"/>
<path d="M61.3125 30.0477C62.0531 30.0571 62.7936 30.0664 63.5566 30.0761C65.3712 30.1004 67.1857 30.1376 69 30.1775C64.5595 36.2441 59.8854 40.7679 53 43.6755C49.592 44.1335 46.4091 44.0821 43 43.6755C42.3359 41.8341 42.3359 41.8341 42 39.5222C43.0391 37.5997 43.0391 37.5997 44.625 35.7584C45.1329 35.1454 45.6408 34.5324 46.1641 33.9008C50.7316 29.8041 55.5273 29.9081 61.3125 30.0477Z" fill="#FFDD60"/>
<path d="M54 50.1669C50.5592 57.7161 45.4391 65.6686 38 68.8159C35.8594 69.0301 35.8594 69.0301 33.75 68.953C32.5125 68.9077 31.275 68.8625 30 68.8159C30.4202 62.9386 31.2976 59.9257 35 55.6519C40.997 51.894 47.0671 49.3026 54 50.1669Z" fill="#FFDD61"/>
<path d="M58.1488 173C63.5024 177.279 67.211 182.275 69.6977 189.154C70.1333 193.175 70.0669 196.976 69.6977 201C66.0132 200.712 64.2029 200.172 61.2766 197.567C57.5175 192.309 56.9316 187.357 57.0059 180.74C57.0121 179.512 57.0183 178.283 57.0247 177.017C57.1863 174.077 57.1863 174.077 58.1488 173Z" fill="#FFDC5F"/>
<path d="M187 32.4044C204.436 31.5787 204.436 31.5787 211 36.7398C213.329 39.9737 214 41.3092 214 45.4106C210.403 47.3601 206.858 47.2479 203 46.4945C196.267 43.05 191.552 38.6688 187 32.4044Z" fill="#FFDC5F"/>
<path d="M46.0607 152C46.6727 152 47.2847 152 47.9152 152C50.3337 157.648 51.1149 161.939 50.9867 168.205C50.9897 168.944 50.9927 169.683 50.9958 170.444C50.9565 174.754 50.4815 178.122 48.8424 182C45.945 181.729 44.5729 181.367 42.5256 178.92C40.473 172.678 40.5293 166.692 42.4676 160.4C43.5905 157.543 44.7679 154.758 46.0607 152Z" fill="#FFDD61"/>
<path d="M76 115C76.33 115 76.66 115 77 115C76.4197 128.799 75.78 142.591 75 156.378C75.5711 155.957 76.1421 155.536 76.7305 155.102C88.1781 147.095 100.439 143.141 114.004 146.157C116.43 146.889 118.718 147.598 121 148.756C121.495 149.834 121.495 149.834 122 150.933C120.144 150.394 120.144 150.394 118.25 149.844C103.47 146.374 91.1882 150.559 78.4609 158.9C76.0178 160.598 76.0178 160.598 74.2891 162.601C73 164 73 164 71 164C72.4275 147.633 74.1538 131.317 76 115Z" fill="white"/>
<path d="M181 135C181.33 135 181.66 135 182 135C182.504 139.027 183.003 143.055 183.5 147.083C183.643 148.226 183.786 149.368 183.934 150.545C184.137 152.196 184.137 152.196 184.344 153.88C184.469 154.893 184.595 155.905 184.725 156.948C185 159.704 185 159.704 185 164C181.762 162.37 178.9 160.373 175.938 158.227C164.955 150.637 153.216 147.193 140.215 149.445C138.131 149.946 136.063 150.52 134 151.111C137.761 146.748 141.595 145.938 146.961 145.497C159.705 145.14 170.42 148.906 181 156.481C181 149.393 181 142.304 181 135Z" fill="white"/>
<path d="M120.976 89.569C122.789 90.7531 124.408 91.8116 125.9 93.436C125.988 95.8441 126.007 98.2553 125.998 100.665C125.996 101.387 125.995 102.108 125.994 102.851C125.988 105.163 125.975 107.474 125.963 109.786C125.958 111.35 125.953 112.914 125.949 114.478C125.938 118.318 125.921 122.159 125.9 126C125.571 126 125.242 126 124.903 126C124.853 125.239 124.803 124.479 124.752 123.695C124.519 120.234 124.275 116.774 124.03 113.314C123.952 112.117 123.873 110.92 123.793 109.686C123.709 108.528 123.625 107.37 123.539 106.178C123.466 105.115 123.393 104.052 123.318 102.956C122.889 99.8094 122.23 97.3603 120.913 94.5215C113.823 89.7202 105.591 88.9975 97.4654 90.7054C95.968 91.1033 94.4759 91.5259 92.9925 91.9816C90.7031 92.4033 89.1927 92.0301 87 91.265C96.8849 85.2108 110.679 84.0226 120.976 89.569Z" fill="white"/>
<path d="M166.995 90.8705C167.656 91.5706 168.318 92.2708 169 92.9922C167.801 92.6421 166.601 92.292 165.366 91.9313C155.915 89.7389 145.77 89.5446 136.916 94.053C133.861 95.7605 133.861 95.7605 133.253 98.026C132.826 100.971 132.576 103.894 132.369 106.866C132.282 108.097 132.195 109.327 132.105 110.596C132.018 111.876 131.93 113.155 131.84 114.474C131.749 115.771 131.658 117.067 131.564 118.403C131.34 121.602 131.119 124.801 130.9 128C130.57 128 130.239 128 129.898 128C129.699 123.263 129.554 118.528 129.457 113.788C129.417 112.177 129.362 110.566 129.293 108.957C128.729 95.5713 128.729 95.5713 131.613 91.8251C133.707 90.4159 135.552 89.5129 137.919 88.7488C146.592 85.6898 158.768 86.7984 166.995 90.8705Z" fill="white"/>
<path d="M155 173C155.66 174.43 156.32 175.86 157 177.333C158.65 177.333 160.3 177.333 162 177.333C161.01 178.942 161.01 178.942 160 180.583C159.833 183.427 159.833 183.427 160 186C158.608 185.698 158.608 185.698 157.188 185.391C153.987 184.655 153.987 184.655 151 186C150.34 183.14 149.68 180.28 149 177.333C150.32 176.976 151.64 176.618 153 176.25C153.66 175.178 154.32 174.105 155 173Z" fill="#FFDF6A"/>
<path d="M100 173C100.66 173 101.32 173 102 173C102.33 174.072 102.66 175.145 103 176.25C105.015 177.044 105.015 177.044 107 177.333C107 178.048 107 178.763 107 179.5C106.34 179.5 105.68 179.5 105 179.5C105 181.645 105 183.79 105 186C104.237 185.799 103.474 185.598 102.688 185.391C99.9103 184.669 99.9103 184.669 97 186C96.6906 184.972 96.3812 183.944 96.0625 182.885C95.1261 179.651 95.1261 179.651 94 177.333C95.65 177.333 97.3 177.333 99 177.333C99.33 175.903 99.66 174.473 100 173Z" fill="#FFDF6A"/>
<path d="M309.182 165.455H314.818V196.273C314.818 199.455 314.068 202.295 312.568 204.795C311.083 207.28 308.985 209.242 306.273 210.682C303.561 212.106 300.379 212.818 296.727 212.818C293.076 212.818 289.894 212.106 287.182 210.682C284.47 209.242 282.364 207.28 280.864 204.795C279.379 202.295 278.636 199.455 278.636 196.273V165.455H284.273V195.818C284.273 198.091 284.773 200.114 285.773 201.886C286.773 203.644 288.197 205.03 290.045 206.045C291.909 207.045 294.136 207.545 296.727 207.545C299.318 207.545 301.545 207.045 303.409 206.045C305.273 205.03 306.697 203.644 307.682 201.886C308.682 200.114 309.182 198.091 309.182 195.818V165.455ZM362.983 165.455V212H357.528L332.165 175.455H331.71V212H326.074V165.455H331.528L356.983 202.091H357.438V165.455H362.983ZM379.898 165.455V212H374.261V165.455H379.898ZM393.108 165.455L406.926 204.636H407.472L421.29 165.455H427.199L410.108 212H404.29L387.199 165.455H393.108ZM434.449 212V165.455H462.54V170.455H440.085V186.182H461.085V191.182H440.085V207H462.903V212H434.449ZM472.699 212V165.455H488.426C492.063 165.455 495.047 166.076 497.381 167.318C499.714 168.545 501.441 170.235 502.562 172.386C503.684 174.538 504.244 176.985 504.244 179.727C504.244 182.47 503.684 184.902 502.562 187.023C501.441 189.144 499.722 190.811 497.403 192.023C495.085 193.22 492.123 193.818 488.517 193.818H475.79V188.727H488.335C490.82 188.727 492.82 188.364 494.335 187.636C495.866 186.909 496.972 185.879 497.653 184.545C498.35 183.197 498.699 181.591 498.699 179.727C498.699 177.864 498.35 176.235 497.653 174.841C496.956 173.447 495.843 172.371 494.312 171.614C492.782 170.841 490.759 170.455 488.244 170.455H478.335V212H472.699ZM494.608 191.091L506.062 212H499.517L488.244 191.091H494.608ZM539.091 177.091C538.818 174.788 537.712 173 535.773 171.727C533.833 170.455 531.455 169.818 528.636 169.818C526.576 169.818 524.773 170.152 523.227 170.818C521.697 171.485 520.5 172.402 519.636 173.568C518.788 174.735 518.364 176.061 518.364 177.545C518.364 178.788 518.659 179.856 519.25 180.75C519.856 181.629 520.629 182.364 521.568 182.955C522.508 183.53 523.492 184.008 524.523 184.386C525.553 184.75 526.5 185.045 527.364 185.273L532.091 186.545C533.303 186.864 534.652 187.303 536.136 187.864C537.636 188.424 539.068 189.189 540.432 190.159C541.811 191.114 542.947 192.341 543.841 193.841C544.735 195.341 545.182 197.182 545.182 199.364C545.182 201.879 544.523 204.152 543.205 206.182C541.902 208.212 539.992 209.826 537.477 211.023C534.977 212.22 531.939 212.818 528.364 212.818C525.03 212.818 522.144 212.28 519.705 211.205C517.28 210.129 515.371 208.629 513.977 206.705C512.598 204.78 511.818 202.545 511.636 200H517.455C517.606 201.758 518.197 203.212 519.227 204.364C520.273 205.5 521.591 206.348 523.182 206.909C524.788 207.455 526.515 207.727 528.364 207.727C530.515 207.727 532.447 207.379 534.159 206.682C535.871 205.97 537.227 204.985 538.227 203.727C539.227 202.455 539.727 200.97 539.727 199.273C539.727 197.727 539.295 196.47 538.432 195.5C537.568 194.53 536.432 193.742 535.023 193.136C533.614 192.53 532.091 192 530.455 191.545L524.727 189.909C521.091 188.864 518.212 187.371 516.091 185.432C513.97 183.492 512.909 180.955 512.909 177.818C512.909 175.212 513.614 172.939 515.023 171C516.447 169.045 518.356 167.53 520.75 166.455C523.159 165.364 525.848 164.818 528.818 164.818C531.818 164.818 534.485 165.356 536.818 166.432C539.152 167.492 541 168.947 542.364 170.795C543.742 172.644 544.47 174.742 544.545 177.091H539.091ZM560.085 165.455V212H554.449V165.455H560.085ZM568.841 170.455V165.455H603.75V170.455H589.114V212H583.477V170.455H568.841ZM608.449 165.455H614.903L627.812 187.182H628.358L641.267 165.455H647.722L630.903 192.818V212H625.267V192.818L608.449 165.455Z" fill="#D9D9D9"/>
<path d="M279.886 127V57.1818H292.534V116.398H323.284V127H279.886ZM346.909 57.1818V127H334.261V57.1818H346.909ZM369.946 57.1818L388.116 112.136H388.832L406.969 57.1818H420.878L396.264 127H380.651L356.071 57.1818H369.946ZM430.074 127V57.1818H475.483V67.7841H442.722V86.7386H473.131V97.3409H442.722V116.398H475.756V127H430.074ZM508.705 128.023C503.932 128.023 499.83 127.159 496.398 125.432C492.966 123.705 490.318 121.375 488.455 118.443C486.614 115.489 485.693 112.159 485.693 108.455C485.693 105.659 486.261 103.182 487.398 101.023C488.557 98.8636 490.148 96.8636 492.17 95.0227C494.216 93.1818 496.58 91.3523 499.261 89.5341L511.636 81.1136C513.455 79.9318 514.83 78.6818 515.761 77.3636C516.716 76.0455 517.193 74.5 517.193 72.7273C517.193 71.2273 516.557 69.8068 515.284 68.4659C514.034 67.125 512.307 66.4545 510.102 66.4545C508.625 66.4545 507.318 66.8068 506.182 67.5114C505.068 68.1932 504.193 69.0909 503.557 70.2045C502.943 71.3182 502.636 72.5 502.636 73.75C502.636 75.2727 503.057 76.8182 503.898 78.3864C504.761 79.9545 505.875 81.5795 507.239 83.2614C508.625 84.9432 510.102 86.7273 511.67 88.6136L544.432 127H531.068L503.864 95.8409C501.841 93.4773 499.886 91.1477 498 88.8523C496.136 86.5568 494.602 84.1705 493.398 81.6932C492.216 79.1932 491.625 76.4886 491.625 73.5795C491.625 70.2841 492.386 67.3409 493.909 64.75C495.432 62.1364 497.557 60.0795 500.284 58.5795C503.034 57.0795 506.25 56.3295 509.932 56.3295C513.614 56.3295 516.773 57.0568 519.409 58.5114C522.045 59.9659 524.08 61.8977 525.511 64.3068C526.943 66.7159 527.659 69.3409 527.659 72.1818C527.659 75.4773 526.841 78.4318 525.205 81.0455C523.568 83.6364 521.295 85.9886 518.386 88.1023L504.273 98.4318C501.955 100.114 500.295 101.818 499.295 103.545C498.295 105.25 497.795 106.705 497.795 107.909C497.795 109.75 498.261 111.42 499.193 112.92C500.125 114.42 501.432 115.625 503.114 116.534C504.818 117.42 506.807 117.864 509.08 117.864C511.58 117.864 514.045 117.307 516.477 116.193C518.909 115.057 521.125 113.443 523.125 111.352C525.125 109.261 526.716 106.761 527.898 103.852C529.08 100.92 529.67 97.6705 529.67 94.1023H540.273C540.273 98.5114 539.784 102.352 538.807 105.625C537.83 108.875 536.568 111.625 535.023 113.875C533.477 116.102 531.841 117.886 530.114 119.227C529.568 119.614 529.045 120 528.545 120.386C528.045 120.773 527.523 121.159 526.977 121.545C524.523 123.773 521.648 125.409 518.352 126.455C515.08 127.5 511.864 128.023 508.705 128.023ZM552.043 127V57.1818H564.69V116.398H595.44V127H552.043ZM606.418 127V57.1818H651.827V67.7841H619.065V86.7386H649.474V97.3409H619.065V116.398H652.099V127H606.418ZM673.696 127H660.196L684.776 57.1818H700.389L725.003 127H711.503L692.855 71.5H692.31L673.696 127ZM674.139 99.625H710.957V109.784H674.139V99.625ZM734.199 127V57.1818H760.381C765.744 57.1818 770.244 58.1136 773.881 59.9773C777.54 61.8409 780.301 64.4545 782.165 67.8182C784.051 71.1591 784.994 75.0568 784.994 79.5114C784.994 83.9886 784.04 87.875 782.131 91.1705C780.244 94.4432 777.46 96.9773 773.778 98.7727C770.097 100.545 765.574 101.432 760.21 101.432H741.562V90.9318H758.506C761.642 90.9318 764.21 90.5 766.21 89.6364C768.21 88.75 769.688 87.4659 770.642 85.7841C771.619 84.0795 772.108 81.9886 772.108 79.5114C772.108 77.0341 771.619 74.9205 770.642 73.1705C769.665 71.3977 768.176 70.0568 766.176 69.1477C764.176 68.2159 761.597 67.75 758.438 67.75H746.847V127H734.199ZM770.267 95.3636L787.551 127H773.438L756.46 95.3636H770.267ZM854.011 57.1818V127H842.761L809.864 79.4432H809.284V127H796.636V57.1818H807.955L840.818 104.773H841.432V57.1818H854.011Z" fill="white"/>
</svg>
