<svg width="14" height="14" viewBox="0 0 14 14" fill="currentColor" xmlns="http://www.w3.org/2000/svg">
<path d="M8.46128 4.74988V1.59419C8.46128 1.03331 8.00661 0.578613 7.44571 0.578613H2.65523C2.09434 0.578613 1.63965 1.03331 1.63965 1.59419V13.421" stroke="black" stroke-linecap="round" stroke-linejoin="round"/>
<path d="M0.518555 13.4214H5.4873" stroke="black" stroke-linecap="round" stroke-linejoin="round"/>
<path d="M1.63965 3.18701H4.09977" stroke="black" stroke-linecap="round" stroke-linejoin="round"/>
<path d="M1.63965 5.74951H5.4873" stroke="black" stroke-linecap="round" stroke-linejoin="round"/>
<path d="M10.4804 10.032C11.4471 10.032 12.2307 9.24831 12.2307 8.28161C12.2307 7.31491 11.4471 6.53125 10.4804 6.53125C9.51364 6.53125 8.72998 7.31491 8.72998 8.28161C8.72998 9.24831 9.51364 10.032 10.4804 10.032Z" stroke="black" stroke-linecap="round" stroke-linejoin="round"/>
<path d="M7.47876 13.421C7.48407 12.9092 7.61816 12.4071 7.8685 11.9616C8.39606 11.0228 9.40927 10.4267 10.4805 10.4243C11.5517 10.4267 12.5649 11.0228 13.0925 11.9616C13.3428 12.4071 13.4769 12.9092 13.4822 13.421" stroke="black" stroke-linecap="round" stroke-linejoin="round"/>
</svg>
